<?xml version="1.0" encoding="UTF-8"?>
<svg xmlns="http://www.w3.org/2000/svg" xmlns:xlink="http://www.w3.org/1999/xlink" viewBox="0 0 50 50" width="50px" height="50px">
<g id="surface222811635">
<path style="fill-rule:nonzero;fill:rgb(100%,23.921569%,0%);fill-opacity:1;stroke-width:1;stroke-linecap:butt;stroke-linejoin:round;stroke:rgb(91.764706%,4.705882%,4.705882%);stroke-opacity:1;stroke-miterlimit:10;" d="M 154.796212 121.472835 C 153.363239 129.002701 147.279864 134.734593 139.749998 135.802563 C 127.921213 137.600538 108.211077 139.749998 85.999999 139.749998 C 64.140404 139.749998 44.430268 137.600538 32.249999 135.802563 C 24.720133 134.734593 18.636758 129.002701 17.203785 121.472835 C 15.770812 113.240001 14.337839 101.046213 14.337839 85.999999 C 14.337839 70.953784 15.770812 58.759996 17.203785 50.527162 C 18.636758 42.997296 24.720133 37.265404 32.249999 36.197434 C 44.078784 34.399459 63.78892 32.249999 85.999999 32.249999 C 108.211077 32.249999 127.569729 34.399459 139.749998 36.197434 C 147.279864 37.265404 153.363239 42.997296 154.796212 50.527162 C 156.229185 58.759996 158.02716 70.953784 158.02716 85.999999 C 157.662158 101.046213 156.229185 113.240001 154.796212 121.472835 Z M 154.796212 121.472835 " transform="matrix(0.288953,0,0,0.288953,0.15,0.15)"/>
<path style="fill-rule:nonzero;fill:rgb(100%,100%,100%);fill-opacity:1;stroke-width:1;stroke-linecap:butt;stroke-linejoin:round;stroke:rgb(91.764706%,4.705882%,4.705882%);stroke-opacity:1;stroke-miterlimit:10;" d="M 71.67027 111.077023 L 71.67027 60.922974 L 114.672973 85.999999 Z M 71.67027 111.077023 " transform="matrix(0.288953,0,0,0.288953,0.15,0.15)"/>
<path style=" stroke:none;fill-rule:nonzero;fill:rgb(89.019608%,22.745098%,2.745098%);fill-opacity:1;" d="M 44.878906 35.25 C 44.464844 37.425781 42.707031 39.082031 40.53125 39.390625 C 37.113281 39.910156 31.417969 40.53125 25 40.53125 C 18.683594 40.53125 12.988281 39.910156 9.46875 39.390625 C 7.292969 39.082031 5.535156 37.425781 5.121094 35.25 C 4.707031 32.871094 4.292969 29.347656 4.292969 25 C 4.292969 20.652344 4.707031 17.128906 5.121094 14.75 C 5.535156 12.574219 7.292969 10.917969 9.46875 10.609375 C 12.886719 10.089844 18.582031 9.46875 25 9.46875 C 31.417969 9.46875 37.011719 10.089844 40.53125 10.609375 C 42.707031 10.917969 44.464844 12.574219 44.878906 14.75 C 45.292969 17.128906 45.8125 20.652344 45.8125 25 C 45.707031 29.347656 45.292969 32.871094 44.878906 35.25 Z M 44.878906 35.25 "/>
<path style=" stroke:none;fill-rule:nonzero;fill:rgb(100%,100%,100%);fill-opacity:1;" d="M 20.859375 32.246094 L 20.859375 17.753906 L 33.285156 25 Z M 20.859375 32.246094 "/>
</g>
</svg>
